<svg xmlns="http://www.w3.org/2000/svg" viewBox="0 0 512 512" width="512" height="512">
  <defs><linearGradient id="g" x1="0" y1="0" x2="1" y2="1"><stop offset="0" stop-color="#f7a26a"/><stop offset="1" stop-color="#e0702d"/></linearGradient></defs>
  <rect width="512" height="512" rx="0" fill="url(#g)"/>
  <g transform="translate(136 136) scale(10)" fill="none" stroke="#fff" stroke-width="1.7" stroke-linecap="round" stroke-linejoin="round"><path d="M14.4 14.4 9.6 9.6"/><path d="M18.657 21.485a2 2 0 1 1-2.829-2.828l-1.767 1.768a2 2 0 1 1-2.829-2.829l6.364-6.364a2 2 0 1 1 2.829 2.829l-1.768 1.767a2 2 0 1 1 2.828 2.829z"/><path d="m21.5 21.5-1.4-1.4"/><path d="M3.9 3.9 2.5 2.5"/><path d="M6.404 12.768a2 2 0 1 1-2.829-2.829l1.768-1.767a2 2 0 1 1-2.828-2.829l2.828-2.828a2 2 0 1 1 2.829 2.828l1.767-1.768a2 2 0 1 1 2.829 2.829z"/></g>
</svg>
